<svg width="24" height="24" viewBox="0 0 24 24" xmlns="http://www.w3.org/2000/svg">
    <g stroke="#56DFF9" stroke-width="1.5" fill="none" fill-rule="evenodd">
        <path d="M21.492 12.84c0-4.48-3.655-8.11-8.161-8.11-4.507 0-8.162 3.63-8.162 8.11 0 4.478 3.655 8.11 8.162 8.11 4.506 0 8.16-3.632 8.16-8.11z"/>
        <path d="M17.297 11.882a3.988 3.988 0 0 0-.293-.81M11.447 16.438a4.08 4.08 0 0 0 1.884.457 4.08 4.08 0 0 0 3.802-2.58M15.528 9.422a4.076 4.076 0 0 0-2.197-.637c-2.254 0-4.08 1.815-4.08 4.055 0 .913.303 1.756.815 2.433" stroke-linecap="round"/>
        <path d="M15.28 4.843A8.158 8.158 0 0 0 10.1 3C5.593 3 1.94 6.632 1.94 11.11c0 3.218 1.885 5.998 4.618 7.309.486.233.999.42 1.533.554"/>
    </g>
</svg>
