<svg width="28" height="28" viewBox="0 0 28 28" xmlns="http://www.w3.org/2000/svg">
    <path d="M20.223 4.5c.559 0 1.084.267 1.414.719l5.373 7.37a1.75 1.75 0 0 1 0 2.062l-5.373 7.37a1.75 1.75 0 0 1-1.414.718H2.167a1.75 1.75 0 0 1-1.75-1.75V6.25c0-.966.783-1.75 1.75-1.75h18.056zm0 1.5H2.167a.25.25 0 0 0-.25.25v14.74c0 .137.112.25.25.25h18.056a.25.25 0 0 0 .202-.104l5.373-7.37a.25.25 0 0 0 0-.294l-5.373-7.37A.25.25 0 0 0 20.223 6zm-2.875 4.83a2.79 2.79 0 1 1 0 5.58 2.79 2.79 0 0 1 0-5.58zm0 1.5a1.29 1.29 0 1 0 0 2.58 1.29 1.29 0 0 0 0-2.58z" fill="#B4C7DC" fill-rule="nonzero"/>
</svg>
