<svg width="148" height="46" viewBox="0 0 148 46" xmlns="http://www.w3.org/2000/svg" xmlns:xlink="http://www.w3.org/1999/xlink">
    <defs>
        <path id="qt0s51y9ha" d="M.044.191h80.368v28.355H.044z"/>
        <path id="px0d0tyecc" d="M1.062.22h41.89v45.402H1.061z"/>
    </defs>
    <g fill="none" fill-rule="evenodd">
        <g transform="translate(66.767 8.796)">
            <mask id="2m4044hmib" fill="#fff">
                <use xlink:href="#qt0s51y9ha"/>
            </mask>
            <path d="M45.46 2.737H34.059a2.36 2.36 0 0 0-2.356 2.357v21.095a2.36 2.36 0 0 0 2.356 2.357 2.36 2.36 0 0 0 2.357-2.357V7.45h9.046a4.656 4.656 0 0 1 4.651 4.65v2.004a4.656 4.656 0 0 1-4.651 4.652h-6.483v4.713h6.483c5.164 0 9.365-4.202 9.365-9.365v-2.004c0-5.163-4.2-9.364-9.365-9.364zm-19.12 18.69a14.05 14.05 0 0 0 1.945-7.115c0-7.786-6.334-14.121-14.121-14.121C6.378.191.044 6.526.044 14.312c0 7.787 6.334 14.122 14.12 14.122 2.407 0 4.788-.623 6.886-1.802l.15-.085 1.26 1.289c.446.457 1.046.71 1.685.71.618 0 1.205-.238 1.647-.672.45-.44.703-1.029.71-1.658a2.333 2.333 0 0 0-.672-1.674l-8.606-8.805a2.362 2.362 0 0 0-3.333-.038 2.359 2.359 0 0 0-.038 3.332l3.892 3.982-.322.121a9.317 9.317 0 0 1-3.26.587c-5.186 0-9.406-4.221-9.406-9.409 0-5.187 4.22-9.407 9.407-9.407 5.188 0 9.408 4.22 9.408 9.407 0 1.23-.237 2.43-.703 3.564l3.47 3.551zm44.71-18.69H59.644a2.36 2.36 0 0 0-2.356 2.357v21.095a2.36 2.36 0 0 0 2.356 2.357 2.34 2.34 0 0 0 2.35-2.296l.007-18.8h9.047a4.655 4.655 0 0 1 4.65 4.651v2.004a4.656 4.656 0 0 1-4.65 4.652h-6.543v4.713h6.543c5.164 0 9.363-4.202 9.363-9.365v-2.004c0-5.163-4.2-9.364-9.363-9.364z" fill="#FFF" mask="url(#2m4044hmib)"/>
        </g>
        <g transform="translate(17.805 -.106)">
            <mask id="w13mdklz8d" fill="#fff">
                <use xlink:href="#px0d0tyecc"/>
            </mask>
            <path d="M41.11 10.833 24.292.83a4.587 4.587 0 0 0-4.574.002L17.86 1.904l20.948 12.421V31.85l-.115.067-16.686 9.634-.116-.068L5.205 31.85v-5.91a7.03 7.03 0 0 1-4.143-.003v6.36c0 1.198.645 2.315 1.683 2.915l16.973 9.8a4.594 4.594 0 0 0 4.578 0l16.366-9.448a4.596 4.596 0 0 0 2.29-3.966V14.072a3.784 3.784 0 0 0-1.842-3.239" fill="#56DFF9" mask="url(#w13mdklz8d)"/>
        </g>
        <path d="m32.575 31.269 7.236-4.177 7.237 4.177c.918.53 2.056.529 2.974 0l2.652-1.532-10.919-6.305a3.902 3.902 0 0 0-3.888 0L26.95 29.737l2.654 1.532a2.987 2.987 0 0 0 2.972 0M28.18 14.362l-7.235 4.177-7.238-4.177a2.978 2.978 0 0 0-2.972 0l-2.653 1.532 10.919 6.304a3.902 3.902 0 0 0 3.888 0l10.918-6.304-2.654-1.532a2.98 2.98 0 0 0-2.973 0" fill="#04AEE8"/>
        <path d="m4.142 13.886.116-.067 16.686-9.633.115.068 16.687 9.632v5.91a7.03 7.03 0 0 1 4.142.003v-6.36a3.378 3.378 0 0 0-1.682-2.915L23.233.725a4.585 4.585 0 0 0-4.578 0L2.288 10.174A4.593 4.593 0 0 0 0 14.14v17.526c0 1.322.706 2.562 1.842 3.237l16.816 10.004a4.587 4.587 0 0 0 4.575-.001l1.857-1.073-20.948-12.42V13.885z" fill="#56DFF9"/>
    </g>
</svg>
