<svg width="24" height="24" viewBox="0 0 24 24" xmlns="http://www.w3.org/2000/svg">
    <g stroke="#56DFF9" stroke-width="1.5" fill="none" fill-rule="evenodd">
        <path d="M2.5 21h16a1 1 0 0 0 1-1V10a1 1 0 0 0-1-1h-16a1 1 0 0 0-1 1v10a1 1 0 0 0 1 1z"/>
        <path d="M19.929 15h1.285c.71 0 1.286-.624 1.286-1.393V4.393c0-.77-.576-1.393-1.286-1.393H5.786C5.076 3 4.5 3.624 4.5 4.393v3.94"/>
        <path d="M7.5 12h6v6h-6zM13.5 14.503h3.938M15.931 11.521h1.507M3.762 11.521h1.507M3.762 17.485h1.507M15.931 17.485h1.507M3.762 14.503H7.5"/>
    </g>
</svg>
