<svg width="184" height="166" viewBox="0 0 184 166" xmlns="http://www.w3.org/2000/svg">
    <g fill="none" fill-rule="evenodd">
        <path d="M174.443 145.554H9.605a7.047 7.047 0 0 1-7.046-7.046V50.972a7.047 7.047 0 0 1 7.046-7.046h164.838a7.047 7.047 0 0 1 7.047 7.046v87.536a7.047 7.047 0 0 1-7.047 7.046" fill="#FDEB1E"/>
        <path fill="#FDEB1E" d="m77.849 143.827 13.947 19.071 15.087-19.071z"/>
        <path d="M170.021 41.096c0 21.475-17.408 38.884-38.883 38.884S92.254 62.57 92.254 41.096c0-21.475 17.409-38.884 38.884-38.884s38.883 17.41 38.883 38.884" fill="#56DFF9"/>
        <path fill="#FDEB1E" d="M124.485 46.63h12.624v-33.2h-12.624zM125.186 67.437h12.157v-11.69h-12.157z"/>
        <path d="M180.245 137.061c-.005 3.93-3.205 7.13-7.133 7.135h-69.096c-.629 0-1.214.314-1.565.837l-9.514 14.275a1.124 1.124 0 0 1-1.874 0l-9.516-14.277a1.884 1.884 0 0 0-1.565-.835H10.89c-3.93-.005-7.13-3.205-7.135-7.133V52.947c.005-3.93 3.205-7.13 7.133-7.135h78.54c.556 0 1.035.415 1.115.965 3.225 22.337 24.021 37.887 46.36 34.66 8.812-1.272 16.797-5.272 23.092-11.567 6.296-6.295 10.295-14.28 11.568-23.092.08-.55.559-.966 1.115-.966h.432c3.93.005 7.13 3.205 7.135 7.133v84.116zM131.052 3.755c20.5 0 37.177 16.677 37.177 37.176 0 20.498-16.677 37.175-37.176 37.175-20.499 0-37.175-16.677-37.175-37.175.024-20.475 16.7-37.152 37.174-37.176zm42.057 38.302c-.62 0-1.125-.506-1.125-1.126C171.984 18.36 153.622 0 131.054 0c-22.57 0-40.932 18.361-40.932 40.93 0 .622-.505 1.127-1.126 1.127H10.89C4.892 42.064.007 46.95 0 52.948v84.113c.007 5.998 4.893 10.883 10.89 10.89h67.486c.378 0 .729.188.938.502l11.122 16.687c.279.417.704.701 1.197.8a1.875 1.875 0 0 0 1.932-.802l11.121-16.685c.21-.315.56-.502.938-.502h67.486c5.998-.007 10.883-4.892 10.89-10.891V52.947c-.007-5.998-4.892-10.883-10.891-10.89z" fill="#1E4287"/>
        <path d="M126.922 16.898c0-.621.506-1.127 1.127-1.127h6.008c.621 0 1.127.506 1.127 1.127v27.037c0 .62-.506 1.126-1.127 1.126h-6.008a1.128 1.128 0 0 1-1.127-1.126V16.898zm-1.877 31.918h12.016a1.88 1.88 0 0 0 1.878-1.877V13.894a1.88 1.88 0 0 0-1.878-1.878h-12.016a1.88 1.88 0 0 0-1.878 1.878v33.045a1.88 1.88 0 0 0 1.878 1.877zM126.922 58.955c0-.621.506-1.127 1.127-1.127h6.008c.621 0 1.127.506 1.127 1.127v6.008c0 .621-.506 1.127-1.127 1.127h-6.008a1.128 1.128 0 0 1-1.127-1.127v-6.008zm-1.877 10.89h12.016a1.88 1.88 0 0 0 1.878-1.878V55.951a1.88 1.88 0 0 0-1.878-1.878h-12.016a1.88 1.88 0 0 0-1.878 1.878v12.016a1.88 1.88 0 0 0 1.878 1.878zM79.984 60.082H16.898a1.88 1.88 0 0 0-1.878 1.877 1.88 1.88 0 0 0 1.878 1.878h63.086a1.88 1.88 0 0 0 1.877-1.878 1.88 1.88 0 0 0-1.877-1.877M79.984 69.094H16.898a1.88 1.88 0 0 0-1.878 1.877 1.88 1.88 0 0 0 1.878 1.878h63.086a1.88 1.88 0 0 0 1.877-1.878 1.88 1.88 0 0 0-1.877-1.877M79.984 78.106H16.898a1.88 1.88 0 0 0-1.878 1.878 1.88 1.88 0 0 0 1.878 1.877h63.086a1.88 1.88 0 0 0 1.877-1.877 1.88 1.88 0 0 0-1.877-1.878M16.898 90.873h33.045a1.88 1.88 0 0 0 1.877-1.877 1.88 1.88 0 0 0-1.877-1.878H16.898a1.88 1.88 0 0 0-1.878 1.878 1.88 1.88 0 0 0 1.878 1.877M61.96 90.873a1.88 1.88 0 0 0 1.877-1.877 1.88 1.88 0 0 0-1.878-1.878h-3.004a1.88 1.88 0 0 0-1.877 1.878 1.88 1.88 0 0 0 1.877 1.877h3.004zM79.984 102.139H16.898a1.88 1.88 0 0 0-1.878 1.877 1.88 1.88 0 0 0 1.878 1.878h63.086a1.88 1.88 0 0 0 1.877-1.878 1.88 1.88 0 0 0-1.877-1.877M79.984 111.15H16.898a1.88 1.88 0 0 0-1.878 1.878 1.88 1.88 0 0 0 1.878 1.878h63.086a1.88 1.88 0 0 0 1.877-1.878 1.88 1.88 0 0 0-1.877-1.877M79.984 120.163H16.898a1.88 1.88 0 0 0-1.878 1.878 1.88 1.88 0 0 0 1.878 1.877h63.086a1.88 1.88 0 0 0 1.877-1.877 1.88 1.88 0 0 0-1.877-1.878M49.943 129.175H16.898a1.88 1.88 0 0 0-1.878 1.878 1.88 1.88 0 0 0 1.878 1.878h33.045a1.88 1.88 0 0 0 1.877-1.878 1.88 1.88 0 0 0-1.877-1.878M61.96 129.175h-3.005a1.88 1.88 0 0 0-1.877 1.878 1.88 1.88 0 0 0 1.877 1.878h3.004a1.88 1.88 0 0 0 1.878-1.878 1.88 1.88 0 0 0-1.878-1.878M167.102 102.139h-63.086a1.88 1.88 0 0 0-1.877 1.877 1.88 1.88 0 0 0 1.877 1.878h63.086a1.88 1.88 0 0 0 1.878-1.878 1.88 1.88 0 0 0-1.878-1.877M167.102 111.15h-63.086a1.88 1.88 0 0 0-1.877 1.878 1.88 1.88 0 0 0 1.877 1.878h63.086a1.88 1.88 0 0 0 1.878-1.878 1.88 1.88 0 0 0-1.878-1.877M167.102 120.163h-63.086a1.88 1.88 0 0 0-1.877 1.878 1.88 1.88 0 0 0 1.877 1.877h63.086a1.88 1.88 0 0 0 1.878-1.877 1.88 1.88 0 0 0-1.878-1.878M137.061 129.175h-33.045a1.88 1.88 0 0 0-1.877 1.878 1.88 1.88 0 0 0 1.877 1.878h33.045a1.88 1.88 0 0 0 1.878-1.878 1.88 1.88 0 0 0-1.878-1.878M149.078 129.175h-3.005a1.88 1.88 0 0 0-1.877 1.878 1.88 1.88 0 0 0 1.877 1.878h3.005a1.88 1.88 0 0 0 1.877-1.878 1.88 1.88 0 0 0-1.877-1.878" fill="#1E4287"/>
    </g>
</svg>
