<svg width="89" height="27.404" viewBox="0 0 89 27.404" xmlns="http://www.w3.org/2000/svg" xmlns:xlink="http://www.w3.org/1999/xlink">
    <defs>
        <path id="yuw49lm81a" d="M0 0h48.33v16.892H0z"/>
        <path id="q4f4mg4aqc" d="M0 0h25.19v27.049H0z"/>
    </defs>
    <g fill="none" fill-rule="evenodd">
        <g transform="translate(40.177 5.354)">
            <mask id="mu3wvn7fyb" fill="#fff">
                <use xlink:href="#yuw49lm81a"/>
            </mask>
            <path d="M27.312 1.517h-6.857c-.781 0-1.417.63-1.417 1.404v12.567c0 .774.636 1.404 1.417 1.404s1.417-.63 1.417-1.404V4.325h5.44c1.542 0 2.797 1.242 2.797 2.77V8.29c0 1.528-1.255 2.771-2.797 2.771h-3.899v2.809h3.899c3.105 0 5.631-2.504 5.631-5.58V7.095c0-3.076-2.526-5.578-5.631-5.578zM15.813 12.65a8.311 8.311 0 0 0 1.17-4.238C16.983 3.774 13.174 0 8.49 0 3.81 0 0 3.774 0 8.413s3.809 8.413 8.491 8.413c1.448 0 2.88-.371 4.141-1.074l.09-.05.758.767c.268.273.629.423 1.014.423a1.415 1.415 0 0 0 1.416-1.388 1.383 1.383 0 0 0-.403-.997L10.33 9.261a1.43 1.43 0 0 0-2.004-.022 1.396 1.396 0 0 0-.023 1.985l2.34 2.372-.193.072a5.65 5.65 0 0 1-1.96.35c-3.119 0-5.656-2.515-5.656-5.605 0-3.09 2.537-5.605 5.656-5.605 3.12 0 5.658 2.515 5.658 5.605 0 .733-.143 1.447-.423 2.123l2.087 2.115zM42.7 1.517h-6.857c-.782 0-1.418.63-1.418 1.404v12.567c0 .774.636 1.404 1.418 1.404a1.4 1.4 0 0 0 1.412-1.367l.005-11.2h5.44c1.542 0 2.797 1.242 2.797 2.77V8.29c0 1.528-1.255 2.771-2.797 2.771h-3.934v2.809h3.934c3.105 0 5.63-2.504 5.63-5.58V7.095c0-3.076-2.525-5.578-5.63-5.578z" fill="#FFF" mask="url(#mu3wvn7fyb)"/>
        </g>
        <g transform="translate(11.345 .067)">
            <mask id="hzxfko3xld" fill="#fff">
                <use xlink:href="#q4f4mg4aqc"/>
            </mask>
            <path d="M24.083 6.323 13.97.363a2.781 2.781 0 0 0-2.751.001l-1.117.64 12.597 7.4v10.44l-.07.04-10.034 5.739-.07-.04-10.034-5.739v-3.52A4.265 4.265 0 0 1 0 15.32v3.79c0 .713.388 1.379 1.012 1.736l10.207 5.838a2.785 2.785 0 0 0 2.753 0l9.842-5.629a2.733 2.733 0 0 0 1.376-2.362V8.252a2.25 2.25 0 0 0-1.107-1.929" fill="#56DFF9" mask="url(#hzxfko3xld)"/>
        </g>
        <path d="m19.589 18.628 4.352-2.488 4.351 2.488a1.81 1.81 0 0 0 1.789 0l1.595-.912-6.566-3.757a2.366 2.366 0 0 0-2.339 0l-6.565 3.757 1.596.912a1.81 1.81 0 0 0 1.787 0M16.946 8.556l-4.35 2.489-4.353-2.49a1.806 1.806 0 0 0-1.787 0L4.86 9.47l6.566 3.755a2.366 2.366 0 0 0 2.338 0L20.33 9.47l-1.596-.913a1.807 1.807 0 0 0-1.788 0" fill="#04AEE8"/>
        <path d="m2.49 8.273.07-.04 10.035-5.74.07.041 10.033 5.739v3.52a4.265 4.265 0 0 1 2.492.002V8.007c0-.714-.388-1.38-1.012-1.737L13.97.432a2.777 2.777 0 0 0-2.753 0l-9.842 5.63A2.732 2.732 0 0 0 0 8.423v10.441c0 .788.424 1.526 1.107 1.928l10.113 5.96a2.781 2.781 0 0 0 2.751 0l1.117-.64-12.597-7.4V8.274z" fill="#56DFF9"/>
    </g>
</svg>
