<svg width="103" height="36" viewBox="0 0 103 36" xmlns="http://www.w3.org/2000/svg">
    <path d="M57.892 3.216H43.38c-1.707 0-3.094 1.376-3.094 3.069v26.648c0 1.69 1.387 3.067 3.094 3.067 1.705 0 3.093-1.377 3.093-3.067V9.354h11.419c3.212 0 5.826 2.595 5.826 5.781v2.533c0 3.188-2.614 5.783-5.826 5.783h-8.344v6.139h8.344c6.622 0 12.008-5.349 12.008-11.922v-2.533c0-6.57-5.386-11.92-12.008-11.92zM33.576 27.068a17.748 17.748 0 0 0 2.549-9.137C36.125 8.044 28.023 0 18.062 0 8.102 0 0 8.044 0 17.931 0 27.816 8.102 35.86 18.062 35.86c3.08 0 6.126-.792 8.807-2.29L27 33.5l1.552 1.575a3.076 3.076 0 0 0 2.213.926c.812 0 1.58-.31 2.161-.875.59-.57.922-1.338.93-2.159a3.051 3.051 0 0 0-.88-2.181l-10.953-11.12a3.11 3.11 0 0 0-4.372-.048c-.59.573-.92 1.34-.93 2.159a3.041 3.041 0 0 0 .881 2.18l4.854 4.925-.277.105a11.82 11.82 0 0 1-4.116.738c-6.55 0-11.878-5.293-11.878-11.793 0-6.5 5.328-11.792 11.878-11.792s11.88 5.292 11.88 11.792c0 1.56-.307 3.084-.91 4.521l4.544 4.616zM90.453 3.216H75.942c-1.705 0-3.093 1.376-3.093 3.069v26.648c0 1.69 1.388 3.067 3.093 3.067a3.06 3.06 0 0 0 3.083-2.988l.007-23.658h11.42c3.213 0 5.825 2.595 5.825 5.781v2.533c0 3.188-2.612 5.783-5.824 5.783h-8.418v6.139h8.418c6.622 0 12.009-5.349 12.009-11.922v-2.533c0-6.57-5.387-11.92-12.01-11.92z" fill="#FFF" fill-rule="evenodd"/>
</svg>
