<svg width="50" height="50" viewBox="0 0 50 50" xmlns="http://www.w3.org/2000/svg">
    <g fill="none" fill-rule="evenodd">
        <circle fill="#B1DEF7" cx="25" cy="25" r="25"/>
        <path d="M25 15h-8.182S13 16.558 13 20.974v1.818M25 15h8.182S37 16.558 37 20.974v1.818" stroke="#22B9FF" stroke-width="2" stroke-linecap="round" stroke-linejoin="round"/>
        <path d="M22.545 22.792H13v9.098c.046-.002.09-.007.136-.007 1.733 0 3.137 1.337 3.137 2.987 0 .044-.005.087-.007.13h17.468c-.002-.043-.007-.086-.007-.13 0-1.65 1.404-2.987 3.137-2.987.046 0 .09.005.136.007v-9.098h-9.545" stroke="#22B9FF" stroke-width="2" stroke-linecap="round" stroke-linejoin="round"/>
        <path d="M13.136 31.883c-.046 0-.09.005-.136.007V35h3.266c.002-.043.007-.086.007-.13 0-1.65-1.404-2.987-3.137-2.987zM37 31.89c-.046-.002-.09-.007-.136-.007-1.733 0-3.137 1.337-3.137 2.987 0 .044.005.087.007.13H37v-3.11zM25.043 27.987h-.085c-1.333 0-2.412-1.028-2.412-2.297V23.01c0-1.268 1.08-2.297 2.412-2.297h.085c1.332 0 2.412 1.029 2.412 2.297v2.679c0 1.269-1.08 2.297-2.412 2.297z" stroke="#22B9FF" stroke-width="2" stroke-linecap="round" stroke-linejoin="round"/>
        <path d="M26.09 25.65c0 .573-.488 1.038-1.09 1.038-.602 0-1.09-.465-1.09-1.039 0-.573.488-1.039 1.09-1.039.602 0 1.09.466 1.09 1.04" fill="#22B9FF"/>
    </g>
</svg>
