<svg width="52" height="52" viewBox="0 0 52 52" xmlns="http://www.w3.org/2000/svg">
    <g fill="none" fill-rule="evenodd">
        <circle stroke="#1E4287" fill="#213F85" cx="26" cy="26" r="25.5"/>
        <g opacity=".6" stroke="#7193B7" stroke-linecap="round" stroke-linejoin="round" stroke-width="1.2">
            <path d="M26 25.961h0c-2.25 0-4.075-1.663-4.075-3.714v-2.395c0-2.05 1.825-3.714 4.075-3.714 2.251 0 4.075 1.663 4.075 3.714v2.395c0 2.05-1.824 3.714-4.075 3.714zM26 34.966h5.931a2.57 2.57 0 0 0 2.211-3.882 4.879 4.879 0 0 0-5.636-2.173 8.455 8.455 0 0 1-2.506.387c-.834 0-1.67-.129-2.506-.387a4.878 4.878 0 0 0-5.635 2.173 2.57 2.57 0 0 0 2.21 3.882H26z"/>
        </g>
    </g>
</svg>
