<svg width="24" height="24" viewBox="0 0 24 24" xmlns="http://www.w3.org/2000/svg">
    <g fill="none" fill-rule="evenodd">
        <path d="M11.55 3.9H5.107S2.1 5.127 2.1 8.605v1.431M11.55 3.9h6.443S21 5.127 21 8.605v1.431" stroke="#56DFF9" stroke-width="1.5" stroke-linecap="round" stroke-linejoin="round"/>
        <path d="M9.617 10.036H2.1v7.165c.036-.002.071-.006.107-.006 1.365 0 2.47 1.053 2.47 2.353 0 .034-.004.068-.005.102h13.756c-.001-.034-.005-.068-.005-.102 0-1.3 1.105-2.353 2.47-2.353.036 0 .071.004.107.006v-7.165h-7.517" stroke="#56DFF9" stroke-width="1.5" stroke-linecap="round" stroke-linejoin="round"/>
        <path d="M2.207 17.195c-.036 0-.071.004-.107.006v2.449h2.572c.001-.034.005-.068.005-.102 0-1.3-1.105-2.353-2.47-2.353zM21 17.2c-.036-.001-.071-.004-.107-.004-1.365 0-2.47 1.053-2.47 2.352 0 .034.004.068.005.102H21V17.2zM11.584 14.127h-.067c-1.05 0-1.9-.81-1.9-1.809V10.21c0-1 .85-1.809 1.9-1.809h.067c1.049 0 1.899.81 1.899 1.809v2.11c0 .998-.85 1.808-1.9 1.808z" stroke="#56DFF9" stroke-width="1.5" stroke-linecap="round" stroke-linejoin="round"/>
        <path d="M12.41 12.286c0 .452-.386.819-.86.819s-.86-.367-.86-.819c0-.451.386-.818.86-.818s.86.367.86.818" fill="#56DFF9"/>
    </g>
</svg>
