<svg width="50" height="50" viewBox="0 0 50 50" xmlns="http://www.w3.org/2000/svg">
    <g fill="none" fill-rule="evenodd">
        <circle cx="25" cy="25" r="25" fill="#959595" fill-rule="nonzero"/>
        <g stroke="#FFF" stroke-width="2">
            <path d="M26.714 25.714a1.715 1.715 0 0 1 3.429 0M30.143 26.571a1.715 1.715 0 0 1 3.428 0M23.286 18.857a1.715 1.715 0 0 1 3.428 0M33.571 27.429a1.715 1.715 0 0 1 3.429 0M33.571 25.714v1.715M35.286 38.571v-1.714L37 34.286v-6.857M26.714 18.857v8.572M30.143 24.857v2.572M22.429 38.571v-1.714l-2.572-2.571v-6.857c1.786 0 3.429 1.714 3.429 3.428v-12M23.286 31.714v-.857M25 12.857a.857.857 0 1 1-1.715 0 .857.857 0 0 1 1.715 0zM19.857 12.857a.857.857 0 1 1-1.715 0 .857.857 0 0 1 1.715 0zM14.714 12.857a.857.857 0 1 1-1.715 0 .857.857 0 0 1 1.715 0zM19.857 18a.857.857 0 1 1-1.715 0 .857.857 0 0 1 1.715 0zM14.714 18A.857.857 0 1 1 13 18a.857.857 0 0 1 1.715 0zM19.857 23.143a.857.857 0 1 1-1.715 0 .857.857 0 0 1 1.715 0zM14.714 23.143a.857.857 0 1 1-1.715 0 .857.857 0 0 1 1.715 0z"/>
        </g>
    </g>
</svg>
