<svg width="74" height="83" viewBox="0 0 74 83" xmlns="http://www.w3.org/2000/svg" xmlns:xlink="http://www.w3.org/1999/xlink">
    <defs>
        <path id="a" d="M0 .823h73.478v54.86H0z"/>
    </defs>
    <g fill="none" fill-rule="evenodd">
        <g transform="translate(0 -.655)">
            <mask id="b" fill="#fff">
                <use xlink:href="#a"/>
            </mask>
            <path d="m34.127 18.09-8.83 5.099-8.83-5.099a3.51 3.51 0 0 0-3.5 0l-3.058 1.768 13.085 7.552a4.62 4.62 0 0 0 4.607 0l13.085-7.552-3.06-1.768a3.522 3.522 0 0 0-3.5 0zm37.17-4.407-20.4-12.135a5.448 5.448 0 0 0-5.44.003l-2.095 1.21 25.305 15.003v21.38l-.195.112L48.18 50.972l-.192-.113-20.294-11.715v-7.087a8.618 8.618 0 0 1-4.812-.004v7.57c0 1.417.763 2.735 1.99 3.443l20.585 11.888a5.476 5.476 0 0 0 5.447 0l19.85-11.462a5.462 5.462 0 0 0 2.724-4.717V17.518a4.481 4.481 0 0 0-2.181-3.835zM39.35 38.413l8.83-5.098 8.83 5.098a3.519 3.519 0 0 0 3.5 0l3.058-1.767-13.085-7.553a4.617 4.617 0 0 0-4.608 0l-13.084 7.553 3.059 1.767c1.079.623 2.42.62 3.5 0zM4.81 17.36l.193-.112L25.296 5.532l.194.114L45.783 17.36v7.088a8.587 8.587 0 0 1 4.811.003v-7.571a3.989 3.989 0 0 0-1.987-3.443L28.02 1.552a5.46 5.46 0 0 0-5.447 0l-19.85 11.46A5.461 5.461 0 0 0 0 17.729v21.258a4.48 4.48 0 0 0 2.18 3.836L22.58 54.957a5.456 5.456 0 0 0 5.441-.003l2.096-1.209L4.81 38.739V17.36z" fill="#FFF" mask="url(#b)"/>
        </g>
        <path d="M40.431 63.871h-8.043c-.946 0-1.715.77-1.715 1.714v14.88a1.716 1.716 0 0 0 3.429 0V67.299h6.329c1.78 0 3.23 1.45 3.23 3.228v1.414c0 1.78-1.45 3.23-3.23 3.23h-4.625v3.427h4.625a6.664 6.664 0 0 0 6.656-6.657v-1.414a6.664 6.664 0 0 0-6.656-6.656zm-13.477 13.32a9.966 9.966 0 0 0 1.412-5.103c0-5.52-4.49-10.012-10.01-10.012-5.521 0-10.012 4.492-10.012 10.012 0 5.52 4.49 10.011 10.011 10.011a9.973 9.973 0 0 0 4.882-1.278l.072-.04.86.88c.325.333.76.517 1.226.517a1.7 1.7 0 0 0 1.198-.49 1.71 1.71 0 0 0 .028-2.423l-6.071-6.208a1.715 1.715 0 0 0-2.45 2.396l2.69 2.75-.154.058c-.733.273-1.5.412-2.28.412a6.592 6.592 0 0 1-6.584-6.585 6.592 6.592 0 0 1 6.583-6.584 6.593 6.593 0 0 1 6.585 6.584c0 .872-.17 1.722-.505 2.525l2.519 2.577zm31.524-13.32h-8.043c-.945 0-1.714.77-1.714 1.714v14.88c0 .944.77 1.713 1.714 1.713.933 0 1.685-.733 1.71-1.669l.003-13.21h6.33a3.232 3.232 0 0 1 3.228 3.228v1.414c0 1.78-1.448 3.23-3.228 3.23h-4.665v3.427h4.665a6.664 6.664 0 0 0 6.656-6.657v-1.414a6.664 6.664 0 0 0-6.656-6.656z" fill="#FFF"/>
    </g>
</svg>
