<svg width="221" height="69" viewBox="0 0 221 69" xmlns="http://www.w3.org/2000/svg" xmlns:xlink="http://www.w3.org/1999/xlink">
    <defs>
        <path id="oul9lv0tha" d="M0 0h120.552v42.532H0z"/>
        <path id="cgxuq119cc" d="M0 0h62.834v68.105H0z"/>
    </defs>
    <g fill="none" fill-rule="evenodd">
        <g transform="translate(100.216 13.64)">
            <mask id="kazsow4vib" fill="#fff">
                <use xlink:href="#oul9lv0tha"/>
            </mask>
            <path d="M68.126 3.82H51.022a3.539 3.539 0 0 0-3.534 3.534v31.643a3.539 3.539 0 0 0 3.534 3.535 3.539 3.539 0 0 0 3.535-3.535V10.89h13.569c3.847 0 6.977 3.128 6.977 6.975v3.006a6.985 6.985 0 0 1-6.977 6.977H58.4v7.071h9.725c7.746 0 14.047-6.303 14.047-14.048v-3.006c0-7.745-6.3-14.046-14.047-14.046zM39.444 31.853a21.075 21.075 0 0 0 2.918-10.672C42.362 9.502 32.86 0 21.18 0 9.5 0 0 9.503 0 21.182c0 11.68 9.5 21.183 21.18 21.183 3.61 0 7.183-.934 10.329-2.704l.225-.127 1.89 1.933a3.508 3.508 0 0 0 2.529 1.065c.926 0 1.806-.357 2.47-1.008a3.508 3.508 0 0 0 1.063-2.487 3.5 3.5 0 0 0-1.006-2.51L25.77 23.318a3.543 3.543 0 0 0-4.999-.056 3.538 3.538 0 0 0-.057 4.999l5.838 5.972-.483.182c-1.57.584-3.215.88-4.889.88-7.78 0-14.11-6.332-14.11-14.113 0-7.78 6.33-14.111 14.11-14.111 7.782 0 14.113 6.33 14.113 14.11 0 1.847-.356 3.645-1.055 5.347l5.206 5.326zM106.508 3.82H89.403a3.539 3.539 0 0 0-3.536 3.535v31.643a3.539 3.539 0 0 0 3.536 3.535 3.509 3.509 0 0 0 3.523-3.443l.012-28.2h13.57a6.983 6.983 0 0 1 6.976 6.976v3.006c0 3.848-3.13 6.977-6.976 6.977h-9.814v7.071h9.814c7.745 0 14.045-6.303 14.045-14.048v-3.006c0-7.745-6.3-14.046-14.045-14.046z" fill="#FFF" mask="url(#kazsow4vib)"/>
        </g>
        <g transform="translate(28.3 .329)">
            <mask id="pp1cga1kpd" fill="#fff">
                <use xlink:href="#cgxuq119cc"/>
            </mask>
            <path d="M60.072 15.921 34.846.915a6.881 6.881 0 0 0-6.862.002l-2.786 1.61L56.62 21.16v26.288l-.174.1-25.029 14.45-.173-.102-25.03-14.448v-8.865c-2.093.623-4.128.62-6.214-.005v9.54c0 1.797.968 3.473 2.525 4.372l25.459 14.7a6.89 6.89 0 0 0 6.867 0L59.4 53.016a6.894 6.894 0 0 0 3.433-5.949v-26.29a5.676 5.676 0 0 0-2.762-4.857" fill="#56DFF9" mask="url(#pp1cga1kpd)"/>
        </g>
        <path d="m48.862 47.063 10.855-6.266 10.854 6.266a4.478 4.478 0 0 0 4.462 0l3.978-2.298-16.378-9.458a5.854 5.854 0 0 0-5.832 0l-16.378 9.458 3.98 2.298a4.48 4.48 0 0 0 4.46 0M42.27 21.702l-10.853 6.266-10.856-6.266a4.468 4.468 0 0 0-4.458 0L12.123 24l16.378 9.456a5.854 5.854 0 0 0 5.832 0L50.711 24l-3.98-2.298a4.47 4.47 0 0 0-4.46 0" fill="#04AEE8"/>
        <path d="m6.213 20.989.173-.1 25.03-14.45.173.101L56.62 20.99v8.865c2.09-.623 4.126-.621 6.214.005v-9.54a5.066 5.066 0 0 0-2.524-4.373L34.849 1.247a6.86 6.86 0 0 0-3.432-.916 6.878 6.878 0 0 0-3.435.916L3.432 15.42A6.89 6.89 0 0 0 0 21.37v26.289a5.673 5.673 0 0 0 2.762 4.855L27.987 67.52a6.881 6.881 0 0 0 6.862-.001l2.786-1.61L6.213 47.28v-26.29z" fill="#56DFF9"/>
    </g>
</svg>
