<svg width="74" height="83" viewBox="0 0 74 83" xmlns="http://www.w3.org/2000/svg" xmlns:xlink="http://www.w3.org/1999/xlink">
    <defs>
        <path id="p0105kua7a" d="M0 0h73.477v54.86H0z"/>
    </defs>
    <g fill="none" fill-rule="evenodd">
        <g transform="translate(0 .167)">
            <mask id="tq2mqbvj4b" fill="#fff">
                <use xlink:href="#p0105kua7a"/>
            </mask>
            <path d="m34.126 17.268-8.83 5.098-8.83-5.098a3.51 3.51 0 0 0-3.5 0L9.91 19.035l13.085 7.552a4.62 4.62 0 0 0 4.607 0l13.084-7.552-3.059-1.767a3.522 3.522 0 0 0-3.5 0zm37.17-4.408L50.897.726a5.448 5.448 0 0 0-5.44.002l-2.096 1.21L68.668 16.94v21.38l-.195.113L48.18 50.149l-.193-.113-20.294-11.714v-7.088a8.618 8.618 0 0 1-4.811-.003v7.57c0 1.416.763 2.735 1.989 3.443L45.457 54.13a5.476 5.476 0 0 0 5.447 0l19.85-11.461a5.462 5.462 0 0 0 2.724-4.717V16.695a4.481 4.481 0 0 0-2.182-3.835zM39.35 37.59l8.83-5.097 8.83 5.097a3.519 3.519 0 0 0 3.502 0l3.056-1.766-13.084-7.553a4.617 4.617 0 0 0-4.608 0l-13.084 7.553 3.058 1.766c1.08.623 2.421.62 3.5 0zM4.81 16.538l.194-.112L25.296 4.71l.193.113L45.782 16.54v7.087a8.587 8.587 0 0 1 4.812.004v-7.572a3.989 3.989 0 0 0-1.987-3.443L28.02.73a5.46 5.46 0 0 0-5.447 0L2.722 12.19A5.461 5.461 0 0 0 0 16.906v21.258A4.48 4.48 0 0 0 2.18 42l20.398 12.135a5.456 5.456 0 0 0 5.442-.004l2.095-1.209L4.81 37.917v-21.38z" fill="#FFF" mask="url(#tq2mqbvj4b)"/>
        </g>
        <path d="M40.431 63.871h-8.043c-.946 0-1.715.77-1.715 1.714v14.88a1.716 1.716 0 0 0 3.429 0V67.299h6.329c1.78 0 3.23 1.45 3.23 3.228v1.414c0 1.78-1.45 3.23-3.23 3.23h-4.625v3.427h4.625a6.664 6.664 0 0 0 6.656-6.657v-1.414a6.664 6.664 0 0 0-6.656-6.656zm-13.477 13.32a9.966 9.966 0 0 0 1.412-5.103c0-5.52-4.49-10.012-10.01-10.012-5.521 0-10.012 4.492-10.012 10.012 0 5.52 4.49 10.011 10.011 10.011a9.973 9.973 0 0 0 4.882-1.278l.072-.04.86.88c.325.333.76.517 1.226.517a1.7 1.7 0 0 0 1.198-.49 1.71 1.71 0 0 0 .028-2.423l-6.071-6.208a1.715 1.715 0 0 0-2.45 2.396l2.69 2.75-.154.058c-.733.273-1.5.412-2.28.412a6.592 6.592 0 0 1-6.584-6.585 6.592 6.592 0 0 1 6.583-6.584 6.593 6.593 0 0 1 6.585 6.584c0 .872-.17 1.722-.505 2.525l2.519 2.577zm31.524-13.32h-8.043c-.945 0-1.714.77-1.714 1.714v14.88c0 .944.77 1.713 1.714 1.713.933 0 1.685-.733 1.71-1.669l.003-13.21h6.33a3.232 3.232 0 0 1 3.228 3.228v1.414c0 1.78-1.448 3.23-3.228 3.23h-4.665v3.427h4.665a6.664 6.664 0 0 0 6.656-6.657v-1.414a6.664 6.664 0 0 0-6.656-6.656z" fill="#FFF"/>
    </g>
</svg>
