<svg width="28.195" height="28.195" viewBox="0 0 28.195 28.195" xmlns="http://www.w3.org/2000/svg">
    <g fill="none" fill-rule="evenodd">
        <circle fill="#F1F4F9" cx="14.098" cy="14.098" r="14.098"/>
        <g stroke="#404F54">
            <g stroke-linejoin="round" stroke-width="1.5">
                <path d="M8.811 16.036v1.348a2 2 0 0 0 2 2h1.348M12.16 8.811H10.81a2 2 0 0 0-2 2v.996M19.384 12.16V10.81a2 2 0 0 0-2-2h-1.348M16.036 19.384h1.348a2 2 0 0 0 2-2v-1.348"/>
            </g>
            <path d="M15.553 13.724a1.83 1.83 0 1 1-3.658 0 1.83 1.83 0 0 1 3.658 0z" stroke-width="1.5"/>
            <path stroke-width="2" stroke-linecap="round" d="m15.295 15.295 1.006 1.006"/>
        </g>
    </g>
</svg>
