<svg width="32" height="32" viewBox="0 0 32 32" xmlns="http://www.w3.org/2000/svg">
    <g fill="#FDEB1E" fill-rule="nonzero">
        <path d="M16 15.25h11v1.5H16z"/>
        <path d="m23.74 13.3 1.02-1.1 3.5 3.25.592.55-.592.55-3.5 3.25-1.02-1.1 2.907-2.699zM18 7.75a2.75 2.75 0 0 1 2.75 2.75v.967h-1.5V10.5c0-.69-.56-1.25-1.25-1.25h-6c-.69 0-1.25.56-1.25 1.25v11c0 .69.56 1.25 1.25 1.25h6c.69 0 1.25-.56 1.25-1.25v-1h1.5v1A2.75 2.75 0 0 1 18 24.25h-6a2.75 2.75 0 0 1-2.75-2.75v-11A2.75 2.75 0 0 1 12 7.75h6z"/>
    </g>
</svg>
