<svg width="151" height="47" viewBox="0 0 151 47" xmlns="http://www.w3.org/2000/svg" xmlns:xlink="http://www.w3.org/1999/xlink">
    <defs>
        <path id="r4basbqkja" d="M0 0h62.053v46.287H0z"/>
    </defs>
    <g fill="none" fill-rule="evenodd">
        <path d="M115.089 11.698h-11.711a2.423 2.423 0 0 0-2.42 2.42v21.665a2.423 2.423 0 0 0 2.42 2.42 2.423 2.423 0 0 0 2.42-2.42V16.538h9.29a4.782 4.782 0 0 1 4.778 4.778v2.058a4.782 4.782 0 0 1-4.777 4.777h-6.659v4.84h6.659c5.304 0 9.618-4.314 9.618-9.617v-2.058c0-5.304-4.314-9.618-9.618-9.618zM95.45 30.894a14.43 14.43 0 0 0 1.998-7.308c0-7.996-6.505-14.502-14.503-14.502-7.997 0-14.502 6.506-14.502 14.502 0 7.997 6.505 14.504 14.502 14.504a14.47 14.47 0 0 0 7.072-1.851l.154-.087 1.294 1.324c.458.47 1.074.728 1.731.728.635 0 1.237-.244 1.692-.69a2.406 2.406 0 0 0 .728-1.702 2.396 2.396 0 0 0-.69-1.72L86.09 25.05a2.426 2.426 0 0 0-3.423-.04 2.424 2.424 0 0 0-.039 3.424l3.997 4.09-.33.123a9.542 9.542 0 0 1-3.348.602c-5.327 0-9.66-4.334-9.66-9.662 0-5.328 4.333-9.661 9.66-9.661 5.328 0 9.663 4.333 9.663 9.661a9.575 9.575 0 0 1-.723 3.66l3.565 3.648zm45.918-19.196h-11.712a2.423 2.423 0 0 0-2.42 2.42v21.665a2.423 2.423 0 0 0 2.42 2.42 2.401 2.401 0 0 0 2.412-2.356l.008-19.309h9.292a4.782 4.782 0 0 1 4.776 4.778v2.058a4.782 4.782 0 0 1-4.776 4.777h-6.72v4.84h6.72c5.303 0 9.616-4.314 9.616-9.617v-2.058c0-5.304-4.313-9.618-9.616-9.618z" fill="#FFF"/>
        <g transform="translate(0 .143)">
            <mask id="jcnnidi2xb" fill="#fff">
                <use xlink:href="#r4basbqkja"/>
            </mask>
            <path d="m21.338 18.95-7.518-4.34a2.9 2.9 0 0 0-2.881 0l-2.465 1.425 10.955 6.323a3.83 3.83 0 0 0 3.82 0l10.956-6.323-2.467-1.426a2.902 2.902 0 0 0-2.883 0l-7.517 4.342zM42.974.603a4.549 4.549 0 0 0-4.523.001l-1.654.956 21.346 12.656v18.198L40.715 42.474 23.286 32.413V26.47a7.347 7.347 0 0 1-3.91-.001v6.303c0 1.168.63 2.257 1.643 2.842L38.45 45.68a4.543 4.543 0 0 0 4.529 0l16.808-9.704a4.543 4.543 0 0 0 2.265-3.923v-18a3.715 3.715 0 0 0-1.807-3.178L42.974.602zm-2.26 26.733 7.52 4.34c.888.512 1.99.512 2.88 0l2.466-1.424-10.955-6.326a3.842 3.842 0 0 0-3.82 0L27.85 30.25l2.467 1.424c.89.512 1.992.512 2.88 0l7.519-4.34zM3.91 13.872 21.337 3.81l17.43 10.062v5.943a7.317 7.317 0 0 1 3.91.001v-6.303c0-1.168-.63-2.26-1.642-2.843L23.602.605A4.52 4.52 0 0 0 21.338 0c-.795 0-1.579.208-2.264.605l-16.81 9.704A4.545 4.545 0 0 0 0 14.232v18c0 1.296.693 2.514 1.808 3.177l17.27 10.274a4.534 4.534 0 0 0 4.525-.002l1.653-.953L3.91 32.07V13.872z" fill="#FFF" mask="url(#jcnnidi2xb)"/>
        </g>
    </g>
</svg>
