<svg width="180" height="119" viewBox="0 0 180 119" xmlns="http://www.w3.org/2000/svg" xmlns:xlink="http://www.w3.org/1999/xlink">
    <defs>
        <path id="204dpid37a" d="M0 0h8.281v14.007H0z"/>
        <path id="56mfbcy45c" d="M0 0h8.281v14.007H0z"/>
    </defs>
    <g fill="none" fill-rule="evenodd">
        <path d="M51.67 91.24s-35.757 5.608-33.21-36.03c0 0 23.59-6.704 35.321 4.125L51.669 91.24zM127.592 91.24s35.756 5.608 33.21-36.03c0 0-23.59-6.704-35.322 4.125l2.112 31.905z" fill="#B9ACDF"/>
        <path d="M128.122 94.084v-37.79a5.765 5.765 0 0 0-2.882-4.992L92.513 32.407a5.765 5.765 0 0 0-5.765 0L54.021 51.302a5.764 5.764 0 0 0-2.882 4.992v37.79a5.764 5.764 0 0 0 2.882 4.992l32.727 18.895a5.765 5.765 0 0 0 5.765 0l32.727-18.895a5.765 5.765 0 0 0 2.882-4.992" fill="#175EC3"/>
        <path d="M87.92 57.922c0 5.153-2.976 9.33-6.647 9.33-3.672 0-6.649-4.177-6.649-9.33 0-5.153 2.977-9.33 6.649-9.33 3.671 0 6.648 4.177 6.648 9.33" fill="#E0EEF5"/>
        <path d="M86.204 57.922c0 3.823-2.207 6.921-4.931 6.921s-4.932-3.098-4.932-6.92C76.341 54.1 78.55 51 81.273 51s4.931 3.099 4.931 6.921" fill="#36C2D1"/>
        <path d="M104.477 57.922c0 5.153-2.977 9.33-6.648 9.33-3.672 0-6.649-4.177-6.649-9.33 0-5.153 2.977-9.33 6.649-9.33 3.67 0 6.648 4.177 6.648 9.33" fill="#E0EEF5"/>
        <path d="M92.017 72.618h-5.56c-.661 0-1.202-.54-1.202-1.201v-3.874c0-.66.54-1.202 1.202-1.202h5.56c.661 0 1.202.541 1.202 1.202v3.874c0 .66-.541 1.201-1.202 1.201" fill="#ED77A9"/>
        <path d="M89.923 84.383a5.183 5.183 0 0 1-2.774-.799c-9.522-6.033-16.702-9.868-16.774-9.905a1.202 1.202 0 0 1 1.13-2.122c.072.04 7.332 3.917 16.93 9.997a2.793 2.793 0 0 0 2.933.026 740.012 740.012 0 0 1 16.853-10.005 1.201 1.201 0 1 1 1.191 2.086c-.073.042-7.382 4.22-16.792 9.97a5.178 5.178 0 0 1-2.697.752" fill="#F4A4CE"/>
        <path d="M100.869 62.745c-.283 0-.567-.1-.796-.302-2.531-2.239-5.095-.816-5.12-.802a1.199 1.199 0 0 1-1.782-1.235c.34-2.118 1.266-3.712 2.75-4.736 2.485-1.716 5.598-1.102 5.73-1.074a1.2 1.2 0 0 1-.479 2.354c-.037-.008-2.274-.425-3.899.706-.426.297-.78.684-1.06 1.159 1.495-.168 3.49.093 5.452 1.828a1.201 1.201 0 0 1-.796 2.102" fill="#36C2D1"/>
        <path d="M53.78 6.856s3.122-1.908 3.122-5.955c0 0 .074 4.764 3.358 5.955 0 0-2.981 2.02-3.358 6.251 0 0-.387-5.6-3.121-6.25" fill="#FFF"/>
        <path d="M55.38 6.704c.772.667 1.301 1.66 1.663 2.668a9.784 9.784 0 0 1 1.659-2.337c-.847-.624-1.429-1.47-1.828-2.334a8.309 8.309 0 0 1-1.494 2.003m1.522 7.303h-.008a.901.901 0 0 1-.891-.837c-.09-1.282-.732-5.033-2.43-5.437a.902.902 0 0 1-.266-1.643c.114-.072 2.694-1.727 2.694-5.189 0-.495.399-.897.894-.901h.007c.492 0 .893.395.901.887 0 .04.11 4.16 2.764 5.122a.9.9 0 0 1 .198 1.594c-.104.071-2.633 1.86-2.966 5.584a.901.901 0 0 1-.897.82" fill="#F5F29E"/>
        <path d="M172.62 59.742s3.12-1.909 3.12-5.956c0 0 .075 4.765 3.36 5.956 0 0-2.982 2.02-3.36 6.25 0 0-.385-5.6-3.12-6.25" fill="#FFF"/>
        <g transform="translate(171.719 52.886)">
            <mask id="ws96ou6ijb" fill="#fff">
                <use xlink:href="#204dpid37a"/>
            </mask>
            <path d="M2.5 6.704c.773.666 1.302 1.66 1.664 2.668a9.8 9.8 0 0 1 1.658-2.337C4.975 6.41 4.394 5.565 3.995 4.7A8.305 8.305 0 0 1 2.5 6.704m1.522 7.303h-.007a.9.9 0 0 1-.891-.837c-.091-1.282-.732-5.033-2.431-5.438A.903.903 0 0 1 .428 6.09C.543 6.017 3.121 4.363 3.121.901c0-.495.4-.897.894-.901h.007c.492 0 .894.395.902.887 0 .04.11 4.16 2.764 5.122a.9.9 0 0 1 .198 1.593c-.104.071-2.634 1.86-2.966 5.585a.9.9 0 0 1-.898.82" fill="#F5F29E" mask="url(#ws96ou6ijb)"/>
        </g>
        <path d="M.901 57.467s3.121-1.909 3.121-5.955c0 0 .074 4.764 3.358 5.955 0 0-2.98 2.02-3.358 6.25 0 0-.386-5.6-3.12-6.25" fill="#FFF"/>
        <g transform="translate(0 50.611)">
            <mask id="vekjlo07ad" fill="#fff">
                <use xlink:href="#56mfbcy45c"/>
            </mask>
            <path d="M2.5 6.704c.772.666 1.302 1.66 1.663 2.668a9.789 9.789 0 0 1 1.66-2.337c-.848-.625-1.43-1.47-1.828-2.334A8.305 8.305 0 0 1 2.5 6.704m1.522 7.303h-.008a.901.901 0 0 1-.891-.837c-.09-1.282-.731-5.033-2.43-5.438A.903.903 0 0 1 .429 6.09C.55 6.012 3.12 4.357 3.12.9c0-.495.399-.897.894-.901h.007c.492 0 .894.395.901.887.001.04.11 4.16 2.764 5.122a.9.9 0 0 1 .199 1.593c-.104.071-2.634 1.86-2.966 5.585a.901.901 0 0 1-.898.82" fill="#F5F29E" mask="url(#vekjlo07ad)"/>
        </g>
        <path d="M108.816 14.799s3.121-1.909 3.121-5.955c0 0 .074 4.764 3.358 5.955 0 0-2.98 2.02-3.358 6.25 0 0-.386-5.6-3.12-6.25" fill="#FFF"/>
        <path d="M110.415 14.647c.772.666 1.302 1.66 1.663 2.668a9.789 9.789 0 0 1 1.659-2.337c-.847-.625-1.429-1.47-1.827-2.334a8.305 8.305 0 0 1-1.495 2.003m1.522 7.303h-.008a.901.901 0 0 1-.891-.837c-.09-1.282-.731-5.033-2.43-5.438a.903.903 0 0 1-.265-1.643c.114-.072 2.693-1.726 2.693-5.188 0-.495.399-.897.894-.901h.007c.492 0 .893.395.901.887 0 .04.11 4.16 2.764 5.122a.9.9 0 0 1 .199 1.593c-.104.071-2.634 1.86-2.966 5.585a.901.901 0 0 1-.898.82" fill="#F5F29E"/>
        <path d="M119.862 53.883s7.265 12.444 26.09 7.387c18.824-5.056 15.656-12.976 17.119-19.068 1.462-6.092 7.858-19.19 1.4-22.358 0 0-4.995-3.655-10.66 9.869l-1.706-.183s-.61-19.495-9.321-16.936c-8.712 2.559-3.168 20.592-3.168 20.592s-.737-11.446-14.32-7.673c-13.582 3.773-9.074 21.258-.606 16.689 8.468-4.57 8.773-4.204 10.6.609 1.828 4.813-5.909 6.03-8.529 1.889 0 0-5.178-4.082-8.955 1.157 0 0-1.092 4.478 2.056 8.026" fill="#CEE2EE"/>
        <path d="M126.061 43.616a17.056 17.056 0 0 1 2.691 1.577c.448.344 1.797 1.147 2.926.953.569-.097 1.043-.446 1.45-1.068 1.003-1.537.657-3.003.055-3.793-.605-.792-1.522-1.06-2.52-.742-1.046.337-1.9 1.028-2.805 1.758-.549.443-1.136.917-1.797 1.315m7.525 20.44c-.048 0-.096-.003-.144-.009-.53-.064-12.996-1.684-16.538-12.956-.074-.26-1.49-5.442 2.11-7.755-2.177-1.32-3.361-3.922-3.183-7.05.237-4.15 3.051-9.602 8.672-11.761 4.574-1.758 8.162-.886 10.366.155 2.237 1.056 3.532 2.495 3.742 2.738.304.33 2.815 3.183 3.281 7.65a1.201 1.201 0 0 1-2.39.25c-.398-3.814-2.641-6.254-2.664-6.278a.922.922 0 0 1-.051-.058c-.17-.2-4.28-4.958-11.422-2.214-4.625 1.777-6.94 6.25-7.135 9.655-.133 2.35.68 4.163 2.234 4.973 2.85 1.485 4.057.51 5.884-.964.988-.798 2.107-1.703 3.58-2.176 1.963-.633 3.943-.031 5.165 1.571 1.397 1.831 1.415 4.47.046 6.565-.773 1.184-1.837 1.919-3.074 2.126-2.364.388-4.524-1.223-4.762-1.409-1.102-.803-4.77-2.926-6.747-1.893-2.407 1.258-1.36 5.151-1.35 5.191 3.062 9.737 14.41 11.24 14.523 11.255a1.203 1.203 0 0 1-.143 2.394" fill="#DFADE0"/>
        <path d="M152.591 32.906a1.201 1.201 0 0 1-1.198-1.126c-.625-9.87-2.42-15.859-5.333-17.8-1.087-.724-2.34-.826-3.828-.31-2.642.91-3.845 3.726-3.575 8.368.22 3.771 1.378 7.304 1.39 7.339a1.2 1.2 0 0 1-2.28.758c-.213-.64-5.109-15.705 3.68-18.738 2.216-.765 4.216-.568 5.945.583 5.382 3.586 6.148 15.676 6.4 19.649a1.202 1.202 0 0 1-1.201 1.277" fill="#DFADE0"/>
        <path d="M156.492 58.816a1.2 1.2 0 0 1-.627-2.227c5.467-3.338 6.028-9.174 6.437-13.434.145-1.516.271-2.825.61-3.789.1-.283.24-.656.407-1.103 1.265-3.372 4.625-12.332 2.458-16.267-.513-.931-1.324-1.5-2.479-1.74-4.487-.934-8.503 8.638-9.558 12.065a1.201 1.201 0 1 1-2.297-.706c.047-.152 1.158-3.729 3.117-7.195 3.526-6.24 6.964-6.988 9.227-6.517 1.858.386 3.235 1.373 4.094 2.934 2.701 4.902-.812 14.27-2.312 18.27-.16.428-.295.786-.39 1.057-.242.687-.355 1.861-.486 3.22-.431 4.497-1.084 11.292-7.575 15.256a1.202 1.202 0 0 1-.626.176" fill="#DFADE0"/>
        <path d="M59.4 53.883s-7.266 12.444-26.09 7.387c-18.825-5.056-15.657-12.976-17.12-19.068-1.462-6.092-7.858-19.19-1.4-22.358 0 0 4.995-3.655 10.66 9.869l1.707-.183s.609-19.495 9.32-16.936c8.713 2.559 3.168 20.592 3.168 20.592s.737-11.446 14.32-7.673c13.582 3.773 9.074 21.258.606 16.689-8.468-4.57-8.772-4.204-10.6.609-1.828 4.813 5.91 6.03 8.53 1.889 0 0 5.177-4.082 8.955 1.157 0 0 1.092 4.478-2.057 8.026" fill="#CEE2EE"/>
        <path d="M47.796 40.411c-.677 0-1.28.3-1.717.874-.602.79-.949 2.256.055 3.793.408.624.885.974 1.457 1.07 1.14.189 2.503-.632 2.892-.934a17.177 17.177 0 0 1 2.718-1.597c-.66-.397-1.248-.872-1.797-1.316-.905-.73-1.76-1.421-2.806-1.757a2.606 2.606 0 0 0-.802-.133m-2.12 23.645a1.202 1.202 0 0 1-.145-2.394c.115-.014 11.463-1.518 14.535-11.292 0-.003 1.046-3.896-1.36-5.154-1.979-1.037-5.646 1.09-6.775 1.915-.21.164-2.37 1.78-4.735 1.387-1.237-.207-2.3-.942-3.073-2.126-1.37-2.096-1.351-4.734.045-6.565 1.222-1.602 3.2-2.206 5.167-1.57 1.471.472 2.59 1.377 3.58 2.175 1.825 1.475 3.032 2.45 5.883.964 1.553-.81 2.367-2.623 2.233-4.973-.194-3.405-2.509-7.878-7.135-9.655-7.14-2.745-11.252 2.014-11.424 2.217a.957.957 0 0 1-.051.059c-.02.02-2.264 2.46-2.662 6.273a1.202 1.202 0 0 1-2.39-.25c.466-4.466 2.978-7.319 3.282-7.649.209-.243 1.504-1.682 3.741-2.738 2.205-1.04 5.793-1.912 10.366-.155 5.621 2.159 8.436 7.61 8.672 11.761.178 3.128-1.005 5.73-3.182 7.05 3.6 2.312 2.184 7.495 2.12 7.722-3.553 11.305-16.02 12.925-16.548 12.99a1.177 1.177 0 0 1-.145.008" fill="#DFADE0"/>
        <path d="M26.67 32.906c-.025 0-.05 0-.076-.003a1.201 1.201 0 0 1-1.124-1.274c.251-3.973 1.016-16.063 6.399-19.648 1.729-1.153 3.729-1.348 5.945-.584 8.79 3.033 3.894 18.098 3.681 18.738a1.201 1.201 0 0 1-2.28-.758c.011-.035 1.17-3.568 1.39-7.34.27-4.64-.934-7.457-3.575-8.368-1.49-.515-2.743-.412-3.829.311-2.914 1.942-4.708 7.93-5.333 17.8a1.201 1.201 0 0 1-1.198 1.126" fill="#DFADE0"/>
        <path d="M22.77 58.816c-.214 0-.43-.057-.626-.176-6.491-3.964-7.144-10.759-7.576-15.255-.13-1.36-.244-2.534-.485-3.22-.096-.272-.23-.63-.39-1.058-1.5-4-5.014-13.368-2.313-18.27.86-1.56 2.237-2.548 4.094-2.934 2.264-.47 5.702.278 9.228 6.517 1.958 3.466 3.07 7.043 3.116 7.194a1.202 1.202 0 0 1-2.297.707c-.01-.035-1.091-3.508-2.928-6.748-1.549-2.733-3.953-5.875-6.63-5.318-1.154.241-1.965.81-2.478 1.741-2.167 3.935 1.193 12.895 2.458 16.268.167.446.307.82.406 1.102.34.964.465 2.273.61 3.79.41 4.26.97 10.095 6.437 13.433a1.201 1.201 0 0 1-.627 2.227" fill="#DFADE0"/>
    </g>
</svg>
