<svg width="202" height="145.685" viewBox="0 0 202 145.685" xmlns="http://www.w3.org/2000/svg">
    <g fill="none" fill-rule="evenodd">
        <path d="M152.133 8.174c26.87 0 48.653 21.783 48.653 48.653 0 26.87-21.783 48.652-48.653 48.652-26.87 0-48.653-21.783-48.653-48.652 0-26.87 21.783-48.653 48.653-48.653M55.208 43.502c27.722 0 50.194 22.472 50.194 50.194S82.93 143.89 55.208 143.89 5.014 121.418 5.014 93.696s22.472-50.194 50.194-50.194" fill="#12246B"/>
        <path d="M5.873 94.703a4.405 4.405 0 1 1 0 8.81 4.405 4.405 0 0 1 0-8.81z" stroke="#1D369A" stroke-width="2.399" stroke-linecap="round"/>
        <path d="M41.358 136.055H38.42a1.467 1.467 0 1 1 0-2.935h2.937v-2.937a1.468 1.468 0 0 1 2.937 0v2.937h2.935a1.468 1.468 0 0 1 0 2.935h-2.935v2.937a1.468 1.468 0 0 1-2.937 0v-2.937z" fill="#4257AB"/>
        <path d="M162.48 1.468a4.405 4.405 0 1 1 0 8.81 4.405 4.405 0 0 1 0-8.81z" stroke="#4257AB" stroke-width="2.399" stroke-linecap="round"/>
        <path d="M177.53 44.764h-2.937a1.467 1.467 0 1 1 0-2.936h2.937V38.89a1.468 1.468 0 0 1 2.936 0v2.937h2.936a1.468 1.468 0 0 1 0 2.936h-2.936V47.7a1.468 1.468 0 0 1-2.936 0v-2.937z" fill="#1D369A"/>
        <g>
            <path d="m140.4 107.888 10.34-21.651 21.894 9.049 2.126 4.002-.672 3.188s5.247 1.211 7.189 5.09c1.94 3.877-.452 9.37-6.623 12.36 0 0-17.935 12.118-34.254-4.686 0 0-1.454-7.27 0-7.352M27.82 76.926s.304 2.485 7.332 2.242c7.029-.242 21.753-4.726 23.813-12.118l.848-15.33s2.799-34.237-9.326-33.115c0 0-9.292-.802-6.284 17.702 0 0-7.033-2.799-11.586 2.096 0 0-3.045-4.813-8.738-1.232-5.692 3.582-9.984 15.465-2.93 21.066l4.387 2.148s-1.211 8.058 2.485 16.541" fill="#BCCBD9"/>
            <path d="M47.487 60.037c-4.599 0-9.495-1.49-10.837-5.85-1.584-5.147 2.942-8.424 3.136-8.56.044-.033.09-.062.14-.088 12.244-6.736 21.46 4.616 21.551 4.732a1.454 1.454 0 0 1-2.276 1.811c-.313-.391-7.757-9.484-17.789-4.042-.414.319-2.88 2.372-1.982 5.292.998 3.243 5.86 4.176 10.238 3.67a1.448 1.448 0 0 1 1.612 1.276 1.454 1.454 0 0 1-1.276 1.612c-.812.096-1.659.147-2.517.147" fill="#BAA0CA"/>
            <path d="M59.208 50.044a1.454 1.454 0 0 1-1.452-1.555c.372-5.348.69-20.212-2.268-24.71-1.696-2.58-3.908-3.992-5.767-3.69-1.764.287-3.175 2.106-3.973 5.12-.002.014-1.564 7.515 1.454 19.443a1.454 1.454 0 1 1-2.82.712c-3.201-12.656-1.533-20.512-1.46-20.84 1.511-5.713 4.615-7.027 6.332-7.306 3.051-.496 6.293 1.357 8.664 4.963 1.76 2.675 2.75 7.985 2.945 15.78.141 5.668-.19 10.525-.205 10.73a1.454 1.454 0 0 1-1.45 1.353" fill="#BAA0CA"/>
            <path d="M36.379 60.806c-1.652 0-3.309-.522-4.631-1.49-2.408-1.763-4.15-4.935-4.662-8.486-.611-4.23.51-8.466 3.154-11.93 4.762-6.235 11.46-4.926 14.337-3.363a1.454 1.454 0 0 1-1.385 2.558c-.268-.144-6.225-3.21-10.64 2.571-2.167 2.837-3.086 6.3-2.588 9.75.403 2.793 1.712 5.242 3.503 6.554 1.055.773 2.52 1.095 3.82.841.699-.138 1.659-.506 2.263-1.489a1.455 1.455 0 0 1 2.478 1.523c-.902 1.466-2.387 2.468-4.182 2.82a7.642 7.642 0 0 1-1.467.141" fill="#BAA0CA"/>
            <path d="M25.316 61.2c-.837 0-1.721-.158-2.649-.473-3.318-1.128-5.522-3.645-6.377-7.279-1.214-5.16.612-12.002 4.156-15.577 5.356-5.403 12.63-1.969 12.937-1.82a1.454 1.454 0 0 1-1.264 2.62c-.233-.112-5.73-2.666-9.608 1.247-2.504 2.526-4.464 8.299-3.39 12.865.622 2.644 2.13 4.39 4.482 5.19 1.29.439 2.336.422 3.197-.049 1.493-.819 2.008-2.774 2.013-2.793a1.455 1.455 0 0 1 2.825.691c-.032.13-.812 3.212-3.44 4.653a5.913 5.913 0 0 1-2.882.725" fill="#BAA0CA"/>
            <path d="M27.822 79.612c-.55 0-1.076-.312-1.321-.844-4.564-9.873-3.563-18.822-3.517-19.198A1.462 1.462 0 0 1 24.6 58.3a1.453 1.453 0 0 1 1.272 1.614c-.01.084-.935 8.54 3.269 17.635a1.454 1.454 0 0 1-1.32 2.064M159.884 125.59c-.28 0-.563-.003-.851-.009-7.3-.147-12.8-2.188-16.346-6.067-4.434-4.85-4.079-10.751-4.061-11 .056-.801.748-1.39 1.551-1.35.8.056 1.404.749 1.35 1.547-.004.077-.253 4.975 3.337 8.874 2.99 3.246 7.777 4.958 14.228 5.088 10.004.214 14.954-3.533 15.404-7.324.334-2.816-1.789-5.3-5.163-6.041a1.453 1.453 0 1 1 .624-2.84c4.89 1.073 7.944 4.866 7.427 9.223-.548 4.614-5.472 9.899-17.5 9.899" fill="#BAA0CA"/>
            <path d="M164.476 112.09a1.454 1.454 0 0 1-.92-2.582c.068-.055 6.801-5.583 10.736-12.218a1.455 1.455 0 0 1 2.502 1.485c-4.204 7.088-11.109 12.751-11.401 12.988-.27.22-.594.327-.917.327" fill="#BAA0CA"/>
            <path d="M174.535 120.375a1.454 1.454 0 0 1-.542-2.804c2.77-1.112 4.648-2.8 5.434-4.884.587-1.555.522-3.24-.18-4.627-.915-1.815-4.845-3.304-6.15-3.683a1.456 1.456 0 0 1 .812-2.794c.639.186 6.29 1.907 7.935 5.166 1.067 2.11 1.178 4.649.305 6.964-.754 2-2.594 4.76-7.073 6.556a1.45 1.45 0 0 1-.54.106M149.771 89.065V65.394s25.772-2.99 29.246 9.936c3.474 12.927-4.257 23.958-4.257 23.958s-8.185 2.46-24.989-10.223M28.38 77.673s17.416-2.666 30.585-11.391v27.63s-21.1 6.624-30.586-16.239" fill="#BAA0CA"/>
            <path d="M151.144 52.622a6.977 6.977 0 0 0-3.489-6.043l-39.1-22.574a6.976 6.976 0 0 0-6.976 0l-39.1 22.574a6.977 6.977 0 0 0-3.488 6.043V97.77a6.977 6.977 0 0 0 3.488 6.042l39.1 22.575a6.976 6.976 0 0 0 6.976 0l39.1-22.575a6.977 6.977 0 0 0 3.489-6.042V52.622z" fill="#3C4CA6"/>
            <path d="M109.738 105.344h-8.12c-.8 0-1.454-.655-1.454-1.455v-6.422c0-.8.655-1.454 1.454-1.454h8.12c.8 0 1.454.654 1.454 1.454v6.422c0 .8-.654 1.455-1.454 1.455M109.738 92.195h-8.12c-.8 0-1.454-.654-1.454-1.454L98.67 50.044c0-.8.654-1.454 1.454-1.454l11.068.02c.8 0 1.454.654 1.454 1.454l-1.454 40.677c0 .8-.654 1.454-1.454 1.454" fill="#4E9CB7"/>
        </g>
    </g>
</svg>
