<svg width="38" height="38" viewBox="0 0 38 38" xmlns="http://www.w3.org/2000/svg" xmlns:xlink="http://www.w3.org/1999/xlink">
    <defs>
        <path id="dz8ugsm9ra" d="M0 0h11.68v12.66H0z"/>
        <path id="gwiunpep6c" d="M0 0h11.68v12.66H0z"/>
    </defs>
    <g fill="none" fill-rule="evenodd">
        <rect stroke="#D7E1EC" stroke-width="4" fill="#162044" x="2.6" y="2.6" width="33.365" height="33.365" rx="8"/>
        <path d="m19.895 21.776 2.018-1.165 2.017 1.165a.833.833 0 0 0 .83 0l.74-.427-3.045-1.758a1.087 1.087 0 0 0-1.084 0l-3.045 1.758.74.427a.834.834 0 0 0 .829 0M18.67 17.061l-2.018 1.165-2.018-1.165a.832.832 0 0 0-.829 0l-.74.428 3.045 1.757c.335.193.75.193 1.084 0l3.045-1.757-.74-.428a.832.832 0 0 0-.83 0" fill="#04AEE8"/>
        <g transform="translate(16.072 13.088)">
            <mask id="tx3pnduqzb" fill="#fff">
                <use xlink:href="#dz8ugsm9ra"/>
            </mask>
            <path d="M11.167 2.96 6.477.17a1.279 1.279 0 0 0-1.275 0l-.518.3 5.841 3.463V8.82l-.032.019-4.653 2.686-.032-.019L1.155 8.82V7.172a1.96 1.96 0 0 1-1.155 0v1.773c0 .334.18.645.47.812l4.732 2.733c.395.227.883.227 1.277 0l4.563-2.635c.394-.227.639-.651.639-1.105V3.862c0-.368-.197-.714-.514-.902" fill="#56DFF9" mask="url(#tx3pnduqzb)"/>
        </g>
        <g transform="translate(10.812 13.088)">
            <mask id="uli5sij3kd" fill="#fff">
                <use xlink:href="#gwiunpep6c"/>
            </mask>
            <path d="m1.155 3.84.032-.018L5.84 1.135l.032.02 4.653 2.685v1.648a1.958 1.958 0 0 1 1.155.001V3.716a.942.942 0 0 0-.469-.813L6.478.17a1.28 1.28 0 0 0-1.276 0L.638 2.805A1.28 1.28 0 0 0 0 3.911v4.887c0 .369.197.714.514.903l4.689 2.79c.393.226.882.226 1.275-.001l.518-.3-5.841-3.463V3.84z" fill="#56DFF9" mask="url(#uli5sij3kd)"/>
        </g>
    </g>
</svg>
