<svg width="165" height="119" viewBox="0 0 165 119" xmlns="http://www.w3.org/2000/svg" xmlns:xlink="http://www.w3.org/1999/xlink">
    <defs>
        <path id="esdqrjkywa" d="M0 0h17.925v21.843H0z"/>
    </defs>
    <g fill="none" fill-rule="evenodd">
        <path d="M119.104 57.858V85.69l14.593 12.774s16.184-4.362 9.82-23.945c-5.232-16.105-24.413-16.66-24.413-16.66M46.896 57.781v27.832L32.303 98.387s-16.184-4.362-9.82-23.945c5.232-16.104 24.413-16.66 24.413-16.66" fill="#B9ACDF"/>
        <path d="M121.424 84.588V47.084a5.721 5.721 0 0 0-2.861-4.955l-32.48-18.752a5.722 5.722 0 0 0-5.72 0l-32.48 18.752a5.722 5.722 0 0 0-2.86 4.955v37.504a5.722 5.722 0 0 0 2.86 4.954l32.48 18.752a5.722 5.722 0 0 0 5.72 0l32.48-18.752a5.721 5.721 0 0 0 2.86-4.954" fill="#C54736"/>
        <path d="M81.606 56.587c0 5.114-2.955 9.26-6.598 9.26-3.644 0-6.598-4.146-6.598-9.26s2.954-9.26 6.598-9.26c3.643 0 6.598 4.146 6.598 9.26M98.036 56.587c0 5.114-2.954 9.26-6.598 9.26-3.644 0-6.598-4.146-6.598-9.26s2.954-9.26 6.598-9.26c3.644 0 6.598 4.146 6.598 9.26" fill="#E0EEF5"/>
        <path d="M85.671 71.172h-5.519a1.196 1.196 0 0 1-1.192-1.193v-3.844c0-.656.537-1.192 1.192-1.192h5.519c.656 0 1.192.536 1.192 1.192v3.844c0 .656-.536 1.193-1.192 1.193" fill="#ED77A9"/>
        <path d="m79.184 55.25-.125.047-8.24 3.124c-.374.114-.408.407-.378.622.705 2.579 2.481 4.413 4.567 4.413 2.703 0 4.894-3.076 4.894-6.87 0-.325-.021-.644-.053-.959-.091-.478-.466-.437-.665-.377M87.703 55.25l.125.047 8.24 3.124c.374.114.408.407.378.622-.705 2.579-2.481 4.413-4.567 4.413-2.703 0-4.894-3.076-4.894-6.87 0-.325.021-.644.053-.959.091-.478.466-.437.665-.377" fill="#36C2D1"/>
        <path d="M89.666 87.71c-.251 0-.505-.08-.72-.243L75.434 77.196a1.192 1.192 0 1 1 1.444-1.898l13.511 10.27a1.192 1.192 0 0 1-.723 2.142" fill="#F4A4CE"/>
        <path d="M76.157 87.71a1.192 1.192 0 0 1-.723-2.142l13.512-10.27a1.192 1.192 0 1 1 1.443 1.898l-13.511 10.27c-.216.165-.47.244-.721.244" fill="#F4A4CE"/>
        <path d="M26.094 79.741S29.14 65.934 40.69 68.086c0 0 13.23-6.037 15.75-.603 2.52 5.434-6.352 8.95-6.352 8.95s12.134-2.326 12.337 1.838c.204 4.165-.157 6.405-9.187 8.873 0 0 11.077-3.937 11.865 3.15.787 7.087-26.565 16.432-36.12 9.922 0 0-7.823-6.667-2.888-20.475" fill="#CEE2EE"/>
        <path d="M25.832 80.303a1.192 1.192 0 0 1-1.158-1.478c.036-.146 3.745-14.506 18-12.306a1.193 1.193 0 0 1-.364 2.356C30.237 67.01 27.115 78.892 26.989 79.398a1.195 1.195 0 0 1-1.157.905" fill="#DFADE0"/>
        <path d="M50.78 77.961a1.194 1.194 0 0 1-.426-2.307c1.288-.495 4.859-2.299 5.893-4.657 1.034-2.358-.816-3.61-1.197-3.838-4.545-2.53-14.555 3.317-18.028 5.784a1.191 1.191 0 1 1-1.382-1.944c.138-.098 3.408-2.412 7.51-4.33 5.744-2.684 10.145-3.217 13.082-1.581 1.449.833 3.752 3.328 2.199 6.868-1.649 3.757-6.998 5.84-7.225 5.926a1.19 1.19 0 0 1-.425.08" fill="#DFADE0"/>
        <path d="M55.931 88.051a1.193 1.193 0 0 1-.317-2.342c4.217-1.167 6.339-3.6 6.526-5.367.154-1.46-.926-2.346-1.86-2.833-3.795-1.98-13.776 1.675-17.302 3.251a1.193 1.193 0 0 1-.972-2.178 63.044 63.044 0 0 1 7.399-2.671c5.537-1.601 9.567-1.775 11.979-.517 2.215 1.156 3.355 3.051 3.127 5.2-.34 3.209-3.582 6.119-8.261 7.414-.106.029-.214.043-.319.043" fill="#DFADE0"/>
        <path d="M38.663 104.045c-3.195 0-6.435-.535-9.15-2.104-2.991-1.73-4.996-4.494-5.96-8.22a1.193 1.193 0 0 1 2.31-.598c.808 3.128 2.392 5.336 4.842 6.752 6.224 3.597 16.199.84 19.954-.197 4.633-1.281 11.806-4.607 13.423-8.043.39-.83.413-1.57.072-2.33-1.614-3.595-11.088-.67-14.28.64a1.193 1.193 0 0 1-.904-2.207c1.477-.606 14.52-5.74 17.36.592.62 1.382.59 2.876-.09 4.32-2.305 4.9-11.53 8.382-14.89 9.311-2.514.695-7.541 2.084-12.687 2.084" fill="#DFADE0"/>
        <path d="M140 79.818s-3.046-13.808-14.596-11.655c0 0-13.23-6.037-15.75-.604-2.52 5.434 6.353 8.951 6.353 8.951s-12.134-2.327-12.338 1.838c-.203 4.164.158 6.405 9.188 8.873 0 0-11.078-3.938-11.865 3.15-.788 7.087 26.565 16.432 36.12 9.922 0 0 7.822-6.667 2.887-20.475" fill="#CEE2EE"/>
        <path d="M140.26 80.38a1.192 1.192 0 0 1-1.155-.905c-.127-.506-3.249-12.391-15.322-10.523a1.192 1.192 0 1 1-.364-2.357c14.247-2.2 17.964 12.161 18 12.307a1.191 1.191 0 0 1-1.158 1.478" fill="#DFADE0"/>
        <path d="M115.313 78.038a1.19 1.19 0 0 1-.426-.08c-.226-.086-5.575-2.168-7.225-5.925-1.552-3.54.75-6.035 2.185-6.86 2.952-1.644 7.352-1.111 13.096 1.573 4.102 1.918 7.373 4.232 7.51 4.33a1.193 1.193 0 0 1-1.382 1.944c-3.473-2.467-13.484-8.31-18.05-5.772-.359.215-2.208 1.468-1.174 3.826 1.04 2.37 4.606 4.165 5.892 4.657a1.193 1.193 0 0 1-.426 2.307" fill="#DFADE0"/>
        <path d="M110.162 88.128c-.105 0-.212-.014-.318-.043-4.68-1.295-7.922-4.205-8.262-7.415-.227-2.148.913-4.043 3.128-5.199 2.411-1.259 6.442-1.084 11.979.517a62.996 62.996 0 0 1 7.399 2.671 1.193 1.193 0 0 1-.973 2.178c-3.527-1.574-13.512-5.228-17.302-3.252-.933.487-2.014 1.375-1.86 2.834.188 1.767 2.31 4.2 6.526 5.367a1.193 1.193 0 0 1-.317 2.342" fill="#DFADE0"/>
        <path d="M127.145 103.966c-4.077 0-8.43-.83-12.4-1.928-3.361-.929-12.586-4.412-14.891-9.312-.68-1.443-.71-2.937-.09-4.32 2.84-6.33 15.882-1.196 17.36-.591a1.193 1.193 0 0 1-.904 2.206c-3.192-1.306-12.668-4.23-14.28-.638-.341.759-.318 1.5.072 2.328 1.616 3.436 8.79 6.763 13.367 8.028 14.003 3.869 22.266 1.776 24.56-6.224a1.192 1.192 0 1 1 2.292.658c-2.131 7.43-8.216 9.793-15.086 9.793" fill="#DFADE0"/>
        <g transform="translate(90.527)">
            <mask id="5krqtdr1rb" fill="#fff">
                <use xlink:href="#esdqrjkywa"/>
            </mask>
            <path d="M5.351 6.474c.66 0 1.306.177 1.893.47.04-.368.137-.728.297-1.059.271-.562 1.315-2.164 4.154-1.509a2.154 2.154 0 0 0-.301-.799c-.614-.968-2.048-1.39-3.75-1.098-2.118.362-3.549 2.226-3.708 3.819-.015.162-.02.319-.012.472a3.56 3.56 0 0 1 1.427-.296m5.078.13c-.373 0-.66.103-.76.366-.208.536.127 1.25.326 1.327.039-.011.301-.148.659-.658.22-.314.405-.624.558-.926-.28-.068-.549-.11-.783-.11m-5.311 2.28c.332.246.73.46 1.196.639.303.117.551.196.751.249a2.95 2.95 0 0 0-.9-.701c-.377-.187-.727-.249-1.047-.187m3.5 5.115c.053.134.098.268.134.403.157-.117.318-.23.484-.335.451-.29.91-.743.715-1.07a.557.557 0 0 0-.743-.182c-.35.194-.648.678-.59 1.184m2.514 1.624c.271.046.56.08.868.102 2.026.149 3.098-1.345 3.423-2.792a5.083 5.083 0 0 0-2.04-5.23 9.862 9.862 0 0 1-.776 1.304c-.636.91-1.323 1.39-1.974 1.577a2.894 2.894 0 0 1 1.365 1.192c.64 1.071.573 2.61-.866 3.847m-7.973-5.284c-.458.568-.73 1.191-.77 1.81-.062.98.458 1.917 1.504 2.713 1.287.979 2.17 1.006 2.447.784.118-.094.165-.268.14-.476a3.35 3.35 0 0 1-.173-.548 3.618 3.618 0 0 1 .373-2.492 8.774 8.774 0 0 1-1.225-.381c-.914-.353-1.686-.833-2.296-1.41m2.398 11.505a1.192 1.192 0 0 1-1.105-1.638c.032-.078.392-.957 1.07-2.077-.83-.08-1.86-.445-3.073-1.369C.761 15.475-.105 13.784.01 11.996c.086-1.336.732-2.64 1.8-3.715a5.168 5.168 0 0 1-.247-2.22C1.851 3.184 4.293.633 7.243.128c2.705-.462 5.01.35 6.165 2.174.566.893.792 1.924.686 3.021 3.33 1.9 4.266 5.417 3.656 8.133-.67 2.99-3.051 4.861-5.924 4.648-1.206-.088-2.15-.322-2.892-.634-1.446 1.633-2.26 3.605-2.271 3.63a1.193 1.193 0 0 1-1.106.744" fill="#DFADE0" mask="url(#5krqtdr1rb)"/>
        </g>
        <path d="M117.375 33.22s8.827-5.683 3.87-8.929c-4.832-3.165-6.044 7.63-6.044 7.63s-.349 1.25.471 1.744c.637.384 1.703-.445 1.703-.445M128.183 37.637s7.745-.873 7.762-5.348c.019-4.476-5.757-3.819-8.816.477-3.06 4.295-.437 5.138 1.054 4.87M131.342 43.49s4.247-2.241 6.9-.892c0 0 2.774 1.431 2.282 3.676-.492 2.244-3.226 2.732-5.807 1.668-2.582-1.063-6.438-2.985-3.375-4.452" fill="#4ECEEF"/>
    </g>
</svg>
