<svg width="165" height="119" viewBox="0 0 165 119" xmlns="http://www.w3.org/2000/svg" xmlns:xlink="http://www.w3.org/1999/xlink">
    <defs>
        <path id="yj10hr1rpa" d="M0 0h79.482v79.482H0z"/>
        <path id="o2jvaz6ayc" d="M0 0h15.09v26.877H0z"/>
        <path id="mz1xni6y8e" d="M0 0h14.938v21.532H0z"/>
        <path id="d5mxgha8jg" d="M0 0h8.727v15.396H0z"/>
    </defs>
    <g fill="none" fill-rule="evenodd">
        <g transform="translate(84.526 6.677)">
            <mask id="ey4s64ukob" fill="#fff">
                <use xlink:href="#yj10hr1rpa"/>
            </mask>
            <path d="M39.741 0c21.948 0 39.741 17.793 39.741 39.741S61.689 79.482 39.741 79.482 0 61.689 0 39.741 17.793 0 39.741 0" fill="#12246B" mask="url(#ey4s64ukob)"/>
        </g>
        <path d="M45.096 35.534c22.644 0 41 18.356 41 41s-18.356 41-41 41-41-18.356-41-41 18.356-41 41-41" fill="#12246B"/>
        <path d="M4.797 77.356a3.598 3.598 0 1 1 0 7.197 3.598 3.598 0 0 1 0-7.197z" stroke="#1D369A" stroke-width="2.399" stroke-linecap="round"/>
        <path d="M33.782 111.134h-2.399a1.199 1.199 0 1 1 0-2.398h2.4v-2.399a1.2 1.2 0 0 1 2.398 0v2.4h2.398a1.2 1.2 0 0 1 0 2.397h-2.398v2.4a1.2 1.2 0 0 1-2.399 0v-2.4z" fill="#4257AB"/>
        <path d="M132.72 1.2a3.598 3.598 0 1 1-.001 7.196 3.598 3.598 0 0 1 0-7.197z" stroke="#4257AB" stroke-width="2.399" stroke-linecap="round"/>
        <path d="M145.012 36.564h-2.4a1.199 1.199 0 1 1 0-2.398h2.4v-2.399a1.2 1.2 0 0 1 2.399 0v2.4h2.398a1.2 1.2 0 0 1 0 2.397h-2.398v2.4a1.2 1.2 0 0 1-2.4 0v-2.4z" fill="#1D369A"/>
        <g>
            <path d="m114.683 88.127 8.447-17.686 17.883 7.391 1.736 3.27-.548 2.604s4.286.989 5.871 4.157c1.586 3.167-.368 7.654-5.409 10.097 0 0-14.65 9.898-27.98-3.828 0 0-1.188-5.94 0-6.005M22.725 62.836s.247 2.03 5.988 1.83c5.742-.197 17.769-3.86 19.451-9.897l.693-12.523s2.286-27.965-7.617-27.048c0 0-7.59-.656-5.134 14.458 0 0-5.744-2.286-9.464 1.713 0 0-2.487-3.932-7.137-1.006-4.65 2.925-8.155 12.632-2.393 17.207l3.583 1.754s-.99 6.582 2.03 13.512" fill="#BCCBD9"/>
            <path d="M38.789 49.04c-3.757 0-7.756-1.217-8.852-4.778-1.294-4.205 2.403-6.881 2.561-6.993a1.02 1.02 0 0 1 .114-.071c10.002-5.502 17.53 3.77 17.605 3.865a1.188 1.188 0 0 1-1.86 1.48c-.255-.32-6.336-7.748-14.53-3.302-.338.26-2.353 1.937-1.62 4.322.816 2.65 4.788 3.412 8.363 2.998a1.187 1.187 0 1 1 .274 2.36c-.662.077-1.354.12-2.055.12" fill="#BAA0CA"/>
            <g transform="translate(34.653 14)">
                <mask id="lb9q0at9od" fill="#fff">
                    <use xlink:href="#o2jvaz6ayc"/>
                </mask>
                <path d="M13.71 26.877a1.188 1.188 0 0 1-1.186-1.27c.304-4.368.564-16.51-1.852-20.184-1.386-2.107-3.193-3.26-4.71-3.014-1.442.235-2.594 1.72-3.246 4.183-.002.01-1.277 6.138 1.187 15.88a1.188 1.188 0 1 1-2.303.583C-1.015 12.717.348 6.3.408 6.031 1.642 1.366 4.178.292 5.579.064c2.493-.405 5.141 1.109 7.078 4.054 1.437 2.185 2.246 6.522 2.405 12.89.116 4.63-.156 8.597-.168 8.764a1.188 1.188 0 0 1-1.183 1.105" fill="#BAA0CA" mask="url(#lb9q0at9od)"/>
            </g>
            <path d="M29.715 49.668a6.457 6.457 0 0 1-3.782-1.217c-1.967-1.44-3.39-4.031-3.809-6.931-.499-3.455.417-6.916 2.577-9.745 3.89-5.094 9.361-4.024 11.71-2.747a1.187 1.187 0 0 1-1.13 2.09c-.22-.118-5.085-2.623-8.692 2.1-1.77 2.316-2.52 5.145-2.113 7.963.329 2.282 1.398 4.283 2.86 5.354.863.631 2.06.894 3.12.687.572-.113 1.356-.414 1.85-1.216a1.188 1.188 0 0 1 2.024 1.244c-.737 1.197-1.95 2.015-3.416 2.303a6.242 6.242 0 0 1-1.199.115" fill="#BAA0CA"/>
            <g transform="translate(13 28.458)">
                <mask id="cwdy3fj9nf" fill="#fff">
                    <use xlink:href="#mz1xni6y8e"/>
                </mask>
                <path d="M7.679 21.532c-.684 0-1.406-.129-2.164-.386-2.71-.921-4.51-2.977-5.21-5.946-.99-4.215.501-9.803 3.396-12.724C8.076-1.936 14.017.87 14.268.99a1.188 1.188 0 0 1-1.032 2.14c-.19-.091-4.68-2.178-7.848 1.019-2.045 2.063-3.647 6.778-2.77 10.508.508 2.16 1.74 3.587 3.662 4.24 1.053.358 1.908.344 2.611-.04 1.22-.67 1.64-2.266 1.645-2.282a1.189 1.189 0 0 1 2.307.565c-.026.106-.663 2.623-2.81 3.8a4.83 4.83 0 0 1-2.354.592" fill="#BAA0CA" mask="url(#cwdy3fj9nf)"/>
            </g>
            <path d="M22.726 65.03c-.45 0-.879-.256-1.08-.69-3.727-8.065-2.91-15.374-2.872-15.681a1.195 1.195 0 0 1 1.32-1.039c.65.077 1.116.668 1.039 1.319-.008.069-.763 6.976 2.67 14.405a1.188 1.188 0 0 1-1.077 1.686M130.598 102.586c-.228 0-.46-.003-.695-.007-5.963-.12-10.455-1.787-13.351-4.956-3.623-3.961-3.332-8.782-3.318-8.985a1.196 1.196 0 0 1 1.267-1.103 1.188 1.188 0 0 1 1.103 1.264c-.003.062-.207 4.063 2.726 7.248 2.442 2.652 6.352 4.05 11.621 4.156 8.172.175 12.215-2.885 12.583-5.983.273-2.3-1.461-4.329-4.217-4.934a1.187 1.187 0 1 1 .51-2.32c3.994.877 6.488 3.975 6.066 7.534-.447 3.77-4.47 8.086-14.295 8.086" fill="#BAA0CA"/>
            <path d="M134.35 91.558a1.187 1.187 0 0 1-.752-2.109c.055-.044 5.555-4.56 8.77-9.98a1.188 1.188 0 0 1 2.044 1.213c-3.435 5.79-9.075 10.416-9.314 10.61-.22.179-.485.266-.749.266" fill="#BAA0CA"/>
            <g transform="translate(140.535 82.93)">
                <mask id="ondj8gm3qh" fill="#fff">
                    <use xlink:href="#d5mxgha8jg"/>
                </mask>
                <path d="M2.031 15.396a1.19 1.19 0 0 1-.442-2.29c2.262-.908 3.796-2.287 4.438-3.99.48-1.27.426-2.646-.146-3.779C5.132 3.855 1.922 2.638.857 2.329A1.189 1.189 0 0 1 1.519.047c.523.151 5.138 1.557 6.483 4.22.87 1.723.962 3.797.248 5.688-.616 1.633-2.118 3.887-5.777 5.355a1.184 1.184 0 0 1-.442.086" fill="#BAA0CA" mask="url(#ondj8gm3qh)"/>
            </g>
            <path d="M122.338 72.75V53.417s21.05-2.442 23.889 8.116c2.837 10.559-3.478 19.57-3.478 19.57s-6.685 2.01-20.411-8.351M23.181 63.446s14.227-2.178 24.983-9.305v22.57S30.93 82.12 23.181 63.445" fill="#BAA0CA"/>
            <path d="M123.46 42.983a5.699 5.699 0 0 0-2.85-4.936L88.671 19.608a5.699 5.699 0 0 0-5.7 0l-31.937 18.44a5.699 5.699 0 0 0-2.85 4.935v36.879a5.699 5.699 0 0 0 2.85 4.935l31.938 18.44a5.699 5.699 0 0 0 5.699 0l31.937-18.44a5.699 5.699 0 0 0 2.85-4.935v-36.88z" fill="#3C4CA6"/>
            <path d="M89.637 86.048h-6.632a1.191 1.191 0 0 1-1.188-1.188v-5.246c0-.653.535-1.188 1.188-1.188h6.632c.654 0 1.188.535 1.188 1.188v5.246c0 .653-.534 1.188-1.188 1.188M89.637 75.308h-6.632a1.191 1.191 0 0 1-1.188-1.188l-1.22-33.243c0-.653.534-1.187 1.188-1.187l9.04.016c.654 0 1.188.535 1.188 1.188L90.825 74.12c0 .653-.534 1.188-1.188 1.188" fill="#4E9CB7"/>
        </g>
    </g>
</svg>
